# File created by Blade
# Date/Time:  Tue Sep 30 19:06:28 2014
#---------------------------------------------------------
:version 1.10
:name HOM
:units
  mass 1.0
  length 1.000000
  angle deg
:documentation
     Acclaim Skeleton File
:root
   axis xyz
   order TX TY TZ RX RY RZ
   position 0.000000 0.000000 0.000000
   orientation 0 0 0
:bonedata
   begin
      id 1
      name Spine_dum
      direction 0.000000 1.000000 0.000000
      length 7.508948
      axis 0.0 0.0 0.0 xyz
   end
   begin
      id 2
      name LeftUpLeg_dum
      direction 1.000000 0.000000 0.000000
      length 3.000560
      axis 0.0 0.0 0.0 xyz
   end
   begin
      id 3
      name RightUpLeg_dum
      direction -1.000000 0.000000 0.000000
      length 3.000560
      axis 0.0 0.0 0.0 xyz
   end
   begin
      id 4
      name Spine
      direction 0.000000 1.000000 0.000000
      length 0.000000
      axis 0.0 0.0 0.0 xyz
      dof rx ry rz
   end
   begin
      id 5
      name Spine_dum1
      direction 0.000000 1.000000 0.000000
      length 13.861154
      axis 0.0 0.0 0.0 xyz
   end
   begin
      id 6
      name Spine_dum2
      direction 0.000000 1.000000 0.000000
      length 8.204781
      axis 0.0 0.0 0.0 xyz
   end
   begin
      id 7
      name Spine_dum3
      direction 0.000000 1.000000 0.000000
      length 8.204781
      axis 0.0 0.0 0.0 xyz
   end
   begin
      id 8
      name Head
      direction 0.000000 1.000000 0.000000
      length 4.527550
      axis 0.0 0.0 0.0 xyz
      dof rx ry rz
   end
   begin
      id 9
      name LeftShoulder
      direction 1.000000 0.000000 0.000000
      length 6.635956
      axis 0.0 0.0 -90.0 xyz
      dof rx ry rz
   end
   begin
      id 10
      name LeftArm
      direction 1.000000 0.000000 0.000000
      length 10.274218
      axis 0.0 0.0 -90.0 xyz
      dof rx ry rz
   end
   begin
      id 11
      name LeftForeArm
      direction 1.000000 0.000000 0.000000
      length 8.522147
      axis 0.0 0.0 -90.0 xyz
      dof ry rz rx
   end
   begin
      id 12
      name LeftHand
      direction 0.000000 0.000000 0.000000
      length 0.000000
      axis 0.0 0.0 -90.0 xyz
      dof rx ry rz
   end
   begin
      id 13
      name LeftHand_dum1
      direction 0.000000 0.000000 0.000000
      length 0.000000
      axis 0.0 0.0 -90.0 xyz
   end
   begin
      id 14
      name LeftHand_dum2
      direction 1.000000 0.000000 0.000000
      length 3.937000
      axis 0.0 0.0 -90.0 xyz
   end
   begin
      id 15
      name LeftHandThumb1
      direction 0.000000 0.000000 1.000000
      length 3.937000
      axis 0.0 0.0 -90.0 xyz
      dof rx rz ry
   end
   begin
      id 16
      name RightShoulder
      direction -1.000000 0.000000 0.000000
      length 6.635956
      axis 0.0 0.0 90.0 xyz
      dof rx ry rz
   end
   begin
      id 17
      name RightArm
      direction -1.000000 0.000000 0.000000
      length 10.274218
      axis 0.0 0.0 90.0 xyz
      dof rx ry rz
   end
   begin
      id 18
      name RightForeArm
      direction -1.000000 0.000000 0.000000
      length 8.522147
      axis 0.0 0.0 90.0 xyz
      dof ry rz rx
   end
   begin
      id 19
      name RightHand
      direction 0.000000 0.000000 0.000000
      length 0.000000
      axis 0.0 0.0 90.0 xyz
      dof rx ry rz
   end
   begin
      id 20
      name RightHand_dum1
      direction 0.000000 0.000000 0.000000
      length 0.000000
      axis 0.0 0.0 90.0 xyz
   end
   begin
      id 21
      name RightHand_dum2
      direction -1.000000 0.000000 0.000000
      length 3.937000
      axis 0.0 0.0 90.0 xyz
   end
   begin
      id 22
      name RightHandThumb1
      direction 0.000000 0.000000 1.000000
      length 3.937000
      axis 0.0 0.0 90.0 xyz
      dof rx rz ry
   end
   begin
      id 23
      name LeftUpLeg
      direction 0.000000 -1.000000 0.000000
      length 16.490845
      axis 0.0 0.0 0.0 xyz
      dof rx ry rz
   end
   begin
      id 24
      name LeftLeg
      direction 0.000000 -1.000000 0.000000
      length 14.556576
      axis 0.0 0.0 0.0 xyz
      dof rx ry rz
   end
   begin
      id 25
      name LeftFoot
      direction 0.000000 -0.258819 0.965926
      length 4.831116
      axis 15.0 0.0 0.0 xyz
      dof rx ry rz
   end
   begin
      id 26
      name LeftToeBase
      direction 0.000000 0.000000 1.000000
      length 2.952750
      axis 0.0 0.0 0.0 xyz
      dof rx ry rz
   end
   begin
      id 27
      name RightUpLeg
      direction 0.000000 -1.000000 0.000000
      length 16.490845
      axis 0.0 0.0 0.0 xyz
      dof rx ry rz
   end
   begin
      id 28
      name RightLeg
      direction 0.000000 -1.000000 0.000000
      length 14.556576
      axis 0.0 0.0 0.0 xyz
      dof rx ry rz
   end
   begin
      id 29
      name RightFoot
      direction 0.000000 -0.258819 0.965926
      length 4.831116
      axis 15.0 0.0 0.0 xyz
      dof rx ry rz
   end
   begin
      id 30
      name RightToeBase
      direction 0.000000 0.000000 1.000000
      length 2.952750
      axis 0.0 0.0 0.0 xyz
      dof rx ry rz
   end
:hierarchy
   begin
      root Spine_dum LeftUpLeg_dum RightUpLeg_dum
      Spine_dum Spine
      LeftUpLeg_dum LeftUpLeg
      RightUpLeg_dum RightUpLeg
      Spine Spine_dum1 Spine_dum2 Spine_dum3
      Spine_dum1 Head
      Spine_dum2 LeftShoulder
      Spine_dum3 RightShoulder
      LeftShoulder LeftArm
      LeftArm LeftForeArm
      LeftForeArm LeftHand
      LeftHand LeftHand_dum1 LeftHand_dum2
      LeftHand_dum1 LeftHandThumb1
      RightShoulder RightArm
      RightArm RightForeArm
      RightForeArm RightHand
      RightHand RightHand_dum1 RightHand_dum2
      RightHand_dum1 RightHandThumb1
      LeftUpLeg LeftLeg
      LeftLeg LeftFoot
      LeftFoot LeftToeBase
      RightUpLeg RightLeg
      RightLeg RightFoot
      RightFoot RightToeBase
   end

# File created by Blade
# Date/Time:  Thu Sep 25 18:48:06 2014
# Frame Rate: 120.000 fps
#------------------------------------------------------
:FULLY-SPECIFIED
:DEGREES
157
root 0.657954 32.713596 1.091042 13.074679 3.519687 -0.239398
Spine -11.578969 2.644556 0.817668
Head -9.498384 -6.460574 8.113940
LeftShoulder -10.840158 27.035279 16.984582
LeftArm 20.825695 1.822507 -40.415263
LeftForeArm -1.621913 0.000000 17.075397
LeftHand -21.807998 -0.000000 -15.692892
LeftHandThumb1 -26.253704 0.000000 33.147579
RightShoulder -19.648066 3.256839 -26.241216
RightArm -6.987605 -19.282302 47.955767
RightForeArm -29.556823 -0.000000 15.583324
RightHand -5.784651 -0.000000 15.936647
RightHandThumb1 -24.326973 -0.000000 -32.862282
LeftUpLeg -9.103871 6.757039 4.073900
LeftLeg 0.211307 -0.000000 -0.000000
LeftFoot -10.495932 2.339882 -11.935074
LeftToeBase 10.940799 -0.000000 -0.000000
RightUpLeg -8.465519 -9.578551 -3.229376
RightLeg 2.150832 -0.000000 -0.000000
RightFoot -8.906460 -7.892365 4.274692
RightToeBase 0.585132 -0.000000 -0.000000
158
root 0.660073 32.712167 1.092958 13.117527 3.512978 -0.245339
Spine -11.552333 2.650359 0.850308
Head -9.489392 -6.449373 8.083949
LeftShoulder -10.817617 27.251189 16.738875
LeftArm 20.905094 3.062364 -41.043199
LeftForeArm -1.838175 0.000000 17.255022
LeftHand -21.902797 0.000000 -16.002112
LeftHandThumb1 -26.253704 0.000000 33.147579
RightShoulder -19.682767 3.021143 -26.037645
RightArm -7.164823 -20.709617 49.019649
RightForeArm -29.402759 -0.000000 15.567764
RightHand -5.513659 0.000000 15.843287
RightHandThumb1 -24.326973 -0.000000 -32.862282
LeftUpLeg -9.146643 6.718616 4.073892
LeftLeg 0.223990 -0.000000 -0.000000
LeftFoot -10.531633 2.398591 -11.974356
LeftToeBase 10.905902 -0.000000 -0.000000
RightUpLeg -8.510191 -9.554576 -3.226310
RightLeg 2.160044 -0.000000 -0.000000
RightFoot -8.922656 -7.896067 4.323113
RightToeBase 0.586960 -0.000000 -0.000000
159
root 0.664662 32.710950 1.099409 13.144858 3.489422 -0.242944
Spine -11.529142 2.676781 0.874673
Head -9.457644 -6.485120 8.056412
LeftShoulder -10.737695 27.413967 16.500799
LeftArm 20.883329 4.350971 -41.680381
LeftForeArm -2.107545 0.000000 17.452810
LeftHand -21.841008 -0.000000 -16.139133
LeftHandThumb1 -26.253704 0.000000 33.147579
RightShoulder -19.729078 2.718564 -25.796517
RightArm -7.314549 -22.036410 50.060179
RightForeArm -29.160777 -0.000000 15.667840
RightHand -5.534151 -0.000000 15.912091
RightHandThumb1 -24.326973 -0.000000 -32.862282
LeftUpLeg -9.152365 6.720974 4.065730
LeftLeg 0.212600 -0.000000 -0.000000
LeftFoot -10.441483 2.322710 -11.982873
LeftToeBase 10.449938 -0.000000 -0.000000
RightUpLeg -8.534761 -9.547630 -3.238323
RightLeg 2.173408 -0.000000 -0.000000
RightFoot -8.940055 -7.874844 4.300323
RightToeBase 0.591249 -0.000000 -0.000000
160
root 0.667509 32.709294 1.101622 13.188246 3.487602 -0.237838
Spine -11.505211 2.688860 0.892197
Head -9.455089 -6.524672 8.053626
LeftShoulder -10.704085 27.624063 16.246020
LeftArm 20.963263 5.678219 -42.275850
LeftForeArm -2.570755 -0.000000 17.603757
LeftHand -21.869808 -0.000000 -16.293742
LeftHandThumb1 -26.253704 0.000000 33.147579
RightShoulder -19.754121 2.507277 -25.608878
RightArm -7.641767 -23.271529 51.204381
RightForeArm -28.951461 -0.000000 15.815473
RightHand -5.421908 0.000000 15.925793
RightHandThumb1 -24.326973 -0.000000 -32.862282
LeftUpLeg -9.199321 6.704320 4.049947
LeftLeg 0.239873 -0.000000 -0.000000
LeftFoot -10.534516 2.407352 -11.768738
LeftToeBase 10.702858 -0.000000 -0.000000
RightUpLeg -8.580109 -9.529911 -3.245081
RightLeg 2.188241 -0.000000 -0.000000
RightFoot -8.967594 -7.891109 4.338388
RightToeBase 0.552279 -0.000000 -0.000000
161
root 0.669155 32.707610 1.105983 13.220184 3.500532 -0.238845
Spine -11.485828 2.684240 0.904512
Head -9.423307 -6.562378 8.064268
LeftShoulder -10.590541 27.805901 16.058688
LeftArm 20.931629 6.967747 -42.982178
LeftForeArm -2.968915 -0.000000 17.807257
LeftHand -21.719258 -0.000000 -16.500818
LeftHandThumb1 -26.253704 0.000000 33.147579
RightShoulder -19.723307 2.320679 -25.408876
RightArm -8.080295 -24.419032 52.403072
RightForeArm -28.570255 -0.000000 16.004865
RightHand -5.365162 0.000000 15.811687
RightHandThumb1 -24.326973 -0.000000 -32.862282
LeftUpLeg -9.231225 6.658658 4.054623
LeftLeg 0.255957 -0.000000 -0.000000
LeftFoot -10.580917 2.443265 -11.772627
LeftToeBase 10.727438 -0.000000 -0.000000
RightUpLeg -8.606259 -9.547826 -3.238402
RightLeg 2.198424 -0.000000 -0.000000
RightFoot -8.989292 -7.889687 4.334044
RightToeBase 0.585143 -0.000000 -0.000000
162
root 0.670959 32.705666 1.112278 13.254957 3.504991 -0.239295
Spine -11.479477 2.705560 0.911022
Head -9.358946 -6.615469 8.076863
LeftShoulder -10.492264 27.955151 15.892710
LeftArm 20.932935 8.330042 -43.701673
LeftForeArm -3.444978 -0.000000 17.945828
LeftHand -21.697816 -0.000000 -16.745221
LeftHandThumb1 -26.253704 0.000000 33.147579
RightShoulder -19.687917 2.115183 -25.214364
RightArm -8.577065 -25.479397 53.643023
RightForeArm -28.039033 -0.000000 16.231924
RightHand -5.400078 -0.000000 15.763482
RightHandThumb1 -24.326973 -0.000000 -32.862282
LeftUpLeg -9.256467 6.638918 4.057015
LeftLeg 0.254663 -0.000000 -0.000000
LeftFoot -10.643605 2.456617 -11.917970
LeftToeBase 10.888448 -0.000000 -0.000000
RightUpLeg -8.631653 -9.559593 -3.234805
RightLeg 2.201388 -0.000000 -0.000000
RightFoot -9.000174 -7.891176 4.316990
RightToeBase 0.555416 -0.000000 -0.000000
163
root 0.673293 32.703612 1.120006 13.301427 3.485541 -0.237745
Spine -11.501363 2.715065 0.914237
Head -9.284209 -6.633846 8.092210
LeftShoulder -10.436066 28.075706 15.717084
LeftArm 20.899682 9.883176 -44.369304
LeftForeArm -4.179806 -0.000000 18.098398
LeftHand -21.739891 -0.000000 -17.034636
LeftHandThumb1 -26.253704 0.000000 33.147579
RightShoulder -19.609338 1.940747 -25.062157
RightArm -9.165626 -26.622911 54.989234
RightForeArm -27.643192 -0.000000 16.479663
RightHand -5.219872 -0.000000 15.827681
RightHandThumb1 -24.326973 -0.000000 -32.862282
LeftUpLeg -9.282245 6.653447 4.045023
LeftLeg 0.250100 -0.000000 -0.000000
LeftFoot -10.685407 2.460259 -11.908520
LeftToeBase 10.938050 -0.000000 -0.000000
RightUpLeg -8.665017 -9.543633 -3.238464
RightLeg 2.201596 -0.000000 -0.000000
RightFoot -9.027852 -7.892105 4.327589
RightToeBase 0.573672 -0.000000 -0.000000
164
root 0.674657 32.701079 1.130813 13.333766 3.489388 -0.236066
Spine -11.516033 2.696311 0.919982
Head -9.196902 -6.633997 8.096609
LeftShoulder -10.343667 28.259917 15.539936
LeftArm 20.827817 11.324432 -45.100926
LeftForeArm -4.940916 -0.000000 18.308142
LeftHand -21.851355 -0.000000 -17.161543
LeftHandThumb1 -26.253704 0.000000 33.147579
RightShoulder -19.501857 1.840226 -24.922972
RightArm -9.918052 -27.895950 56.445893
RightForeArm -27.564244 -0.000000 16.752717
RightHand -5.058308 0.000000 15.467561
RightHandThumb1 -24.326973 -0.000000 -32.862282
LeftUpLeg -9.288437 6.647303 4.042664
LeftLeg 0.237713 -0.000000 -0.000000
LeftFoot -10.710719 2.458329 -11.886737
LeftToeBase 10.920710 -0.000000 -0.000000
RightUpLeg -8.671840 -9.581686 -3.234871
RightLeg 2.190920 -0.000000 -0.000000
RightFoot -9.061382 -7.848615 4.338945
RightToeBase 0.603430 -0.000000 -0.000000
165
root 0.676473 32.699000 1.138989 13.389983 3.500680 -0.238956
Spine -11.561684 2.703775 0.918268
Head -9.111498 -6.641748 8.119842
LeftShoulder -10.220150 28.387443 15.448886
LeftArm 20.754594 12.867836 -45.915741
LeftForeArm -5.685329 -0.000000 18.465348
LeftHand -21.903988 -0.000000 -17.304312
LeftHandThumb1 -26.253704 0.000000 33.147579
RightShoulder -19.433447 1.681812 -24.747086
RightArm -10.618046 -29.189706 57.881938
RightForeArm -27.267036 0.000000 17.041490
RightHand -4.774148 -0.000000 15.645242
RightHandThumb1 -24.326973 -0.000000 -32.862282
LeftUpLeg -9.331717 6.608292 4.042921
LeftLeg 0.247198 -0.000000 -0.000000
LeftFoot -10.697213 2.474347 -11.768911
LeftToeBase 10.691674 -0.000000 -0.000000
RightUpLeg -8.708998 -9.607111 -3.225483
RightLeg 2.186154 -0.000000 -0.000000
RightFoot -9.079577 -7.825010 4.334855
RightToeBase 0.588345 -0.000000 -0.000000
166
root 0.676939 32.696794 1.146651 13.436109 3.500826 -0.245761
Spine -11.592101 2.681657 0.917996
Head -8.996993 -6.602279 8.200017
LeftShoulder -10.108639 28.499481 15.366817
LeftArm 20.631581 14.446554 -46.770722
LeftForeArm -6.509536 -0.000000 18.623088
LeftHand -22.000832 0.000000 -17.438530
LeftHandThumb1 -26.253704 0.000000 33.147579
RightShoulder -19.407800 1.519690 -24.556701
RightArm -11.281725 -30.824128 59.363200
RightForeArm -26.855408 -0.000000 17.405883
RightHand -4.783843 -0.000000 15.849635
RightHandThumb1 -24.326973 -0.000000 -32.862282
LeftUpLeg -9.366372 6.611035 4.049535
LeftLeg 0.246148 -0.000000 -0.000000
LeftFoot -10.769847 2.477316 -11.902334
LeftToeBase 10.892248 -0.000000 -0.000000
RightUpLeg -8.738041 -9.598767 -3.214460
RightLeg 2.179479 -0.000000 -0.000000
RightFoot -9.102812 -7.832441 4.343036
RightToeBase 0.572956 -0.000000 -0.000000
167
root 0.679742 32.694594 1.158380 13.465769 3.468812 -0.246379
Spine -11.609473 2.682367 0.911531
Head -8.902177 -6.563534 8.249070
LeftShoulder -9.976500 28.693750 15.252686
LeftArm 20.483149 15.960321 -47.644062
LeftForeArm -7.386713 -0.000000 18.863325
LeftHand -22.132371 -0.000000 -17.643298
LeftHandThumb1 -26.253704 0.000000 33.147579
RightShoulder -19.315102 1.432971 -24.376745
RightArm -12.057988 -32.218530 60.920408
RightForeArm -26.609577 -0.000000 17.659748
RightHand -4.477560 -0.000000 15.646299
RightHandThumb1 -24.326973 -0.000000 -32.862282
LeftUpLeg -9.363651 6.635894 4.038587
LeftLeg 0.241257 -0.000000 -0.000000
LeftFoot -10.762105 2.469543 -11.771100
LeftToeBase 10.724986 -0.000000 -0.000000
RightUpLeg -8.749192 -9.586613 -3.220370
RightLeg 2.174075 -0.000000 -0.000000
RightFoot -9.119600 -7.817691 4.360494
RightToeBase 0.563489 -0.000000 -0.000000
168
root 0.678607 32.693038 1.163818 13.512148 3.479652 -0.246788
Spine -11.620513 2.638120 0.908531
Head -8.818368 -6.508086 8.312479
LeftShoulder -9.901809 28.870004 15.120514
LeftArm 20.409643 17.480822 -48.536885
LeftForeArm -8.124036 0.000000 19.001651
LeftHand -22.162948 -0.000000 -17.995499
LeftHandThumb1 -26.253704 0.000000 33.147579
RightShoulder -19.242869 1.323065 -24.197733
RightArm -12.784820 -33.425338 62.521741
RightForeArm -26.452597 0.000000 17.869743
RightHand -4.345709 -0.000000 15.983877
RightHandThumb1 -24.326973 -0.000000 -32.862282
LeftUpLeg -9.414475 6.628347 4.041326
LeftLeg 0.265153 -0.000000 -0.000000
LeftFoot -10.833420 2.467151 -11.884478
LeftToeBase 10.878905 -0.000000 -0.000000
RightUpLeg -8.798281 -9.582911 -3.212615
RightLeg 2.208607 -0.000000 -0.000000
RightFoot -9.164116 -7.826500 4.360092
RightToeBase 0.582583 -0.000000 -0.000000
